<?xml version="1.0" standalone="no"?>
<!DOCTYPE svg PUBLIC "-//W3C//DTD SVG 20010904//EN" "http://www.w3.org/TR/2001/REC-SVG-20010904/DTD/svg10.dtd">
<svg version="1.0" xmlns="http://www.w3.org/2000/svg" width="926.000000pt" height="1280.000000pt" viewBox="0 0 926.000000 1280.000000" preserveAspectRatio="xMidYMid meet">
    <g transform="translate(0.000000,1280.000000) scale(0.100000,-0.100000)" fill="#000000" stroke="none">
        <path d="M4590 12790 c-504 -70 -1061 -319 -1550 -694 -180 -137 -298 -243 -500 -445 -205 -205 -343 -365 -514 -591 -809 -1074 -1427 -2586 -1821 -4455 -397 -1880 -213 -3379 554 -4523 644 -962 1746 -1656 3111 -1960 415 -93 737 -131 945 -113 444 40 933 150 1360 308 677 251 1220 590 1686 1053 235 234 352 373 521 620 794 1159 1050 2750 762 4740 -94 651 -444 1797 -817 2675 -547 1291 -1251 2277 -2015 2823 -359 258 -747 434 -1126 512 -224 47 -470 67 -596 50z"/>
    </g>
</svg>
